<svg width="1280" height="827" viewBox="0 0 1280 827" fill="none" xmlns="http://www.w3.org/2000/svg">
<g clip-path="url(#clip0_482_84)">
<rect width="1280" height="827" fill="url(#paint0_linear_482_84)"/>
<g filter="url(#filter0_d_482_84)">
<path d="M929.679 179.528H1175.68C1176.85 173.028 1170.48 161.028 1135.68 165.028C1133.35 162.861 1127.58 158.528 1123.18 158.528C1124.18 154.528 1122.58 145.528 1108.18 141.528C1103.51 140.861 1093.58 139.828 1091.18 141.028C1087.35 133.194 1074.98 117.628 1056.18 118.028C1048.35 117.694 1031.18 120.228 1025.18 133.028C1022.35 132.528 1015.18 131.828 1009.18 133.028C1001.68 134.528 986.179 141.528 983.679 159.028C972.512 153.694 946.279 147.728 930.679 166.528C929.679 168.028 928.079 172.728 929.679 179.528Z" fill="white"/>
</g>
<g filter="url(#filter1_d_482_84)">
<path d="M97.4995 120H273.5C273.333 112.333 266.2 97.4999 239 99.4999C235.833 96.1666 226.8 89.9999 216 91.9999C212 85.8333 198.1 73.8 174.5 75C145 76.5 135 84.5 134 96C125.5 95.3333 106.7 96.3 99.4995 105.5C98.1662 106.5 95.8995 110.8 97.4995 120Z" fill="white"/>
</g>
<g filter="url(#filter2_d_482_84)">
<path d="M427.5 170.5H137C134.2 159.3 138.167 153.167 140.5 151.5C150.1 140.7 175.167 140.333 186.5 141.5C200.1 133.5 224.333 129.667 232 129.5C234.8 109.5 265.833 101.167 281 99.5C278.5 89 289.5 69.5 325 67.5C353.4 65.9 362.833 85.5 364 95.5C400 105.1 397.667 127.167 392 137C422.4 138.2 428.333 159.833 427.5 170.5Z" fill="white"/>
</g>
<g filter="url(#filter3_d_482_84)">
<path d="M630.892 194C645.596 170.013 592.879 128.541 633.303 99.7124C629.178 96.7952 556.732 114.357 518.612 44.7307C382.018 78.1097 340 44.7307 340 44.7307L4.00049 30.4254V-184H1281V30.4254C1244.3 49.6037 1189.15 53.6532 1149.17 64.4214C1098.35 78.1097 1099.93 84.4676 1010.99 79.6992C979.445 78.0082 895.041 49.4991 860.099 54.2676C825.156 59.036 813.729 79.1203 821.979 95.594C822.323 96.2804 822.907 97.8591 822.495 98.6828C822.082 99.5065 818.198 99.7124 816.307 99.7124C798.605 98.3396 722.917 93.3532 693.63 114.357C657.021 140.612 630.11 158.479 661.047 194H630.892Z" fill="white"/>
</g>
<g filter="url(#filter4_d_482_84)">
<path d="M-1 907V419.5L300 379.5C365.833 342.667 501.1 267.1 515.5 259.5L516.095 259.186C533.523 249.991 535.048 249.186 628 177H657C724.833 224.333 872.9 318.9 922.5 318.5L938.5 322.5L1278 440.5V907H-1Z" fill="#2E5236"/>
</g>
<g filter="url(#filter5_d_482_84)">
<path d="M0 917.999V315C165.527 358.703 510.698 443.506 567.165 433.098C592.861 434.766 671.287 425.191 779.413 373.548C809.782 360.037 892.246 332.615 979.147 331.013C1055.57 337.185 1222.73 355.534 1280 379.553V919L0 917.999Z" fill="#588739"/>
</g>
<g filter="url(#filter6_d_482_84)">
<path d="M-3 869.255V433.746H1280V869.255H-3Z" fill="#3AC399"/>
</g>
<g filter="url(#filter7_d_482_84)">
<path d="M205 506.5C224.833 457 280.6 355.9 345 347.5C357.833 347.667 391.2 355.7 422 386.5C432.167 396 457.5 408.9 477.5 384.5C488.333 363.333 497.8 316.7 449 299.5C447 298.833 444.2 296.5 449 292.5C452.167 287.833 461.9 280.1 475.5 286.5C477.833 287.667 485.7 294.5 498.5 312.5C514.5 335 509.5 398 496 415.5C482.5 433 475.5 438 443.5 459.5C441.667 461.333 438.3 466 439.5 470L449 498.5H434.5L424.5 478C423.5 475.5 421.8 469.8 423 467C420.667 465.5 414.3 464.3 407.5 471.5C404.5 475.167 398.7 485.4 399.5 497H380.5C381.5 489.833 384.6 473.8 389 467C373.5 467.167 339.6 466.2 328 461V504.5H310.5V479.5C309.5 477.333 306.9 474.3 304.5 479.5V504.5H286.5V474C284.5 472.833 278.6 471.2 271 474C261.5 477.5 249 488.5 234 510L205 506.5Z" fill="#9EE36E"/>
</g>
<g filter="url(#filter8_d_482_84)">
<path d="M-3 925V490H1278.5V925H-3Z" fill="#3AC399"/>
</g>
<g filter="url(#filter9_d_482_84)">
<path d="M205.382 181.503C205.107 179.994 205.547 177.222 209.504 178.21C213.763 187.267 223.355 213.449 227.642 245.724L228.878 250.664C237.947 228.709 257.65 184.138 263.916 181.503L273.81 186.444L244.13 254.781C255.672 234.06 279.251 192.784 281.229 193.443C283.208 194.102 285.351 195.913 286.176 196.736C276.557 217.457 256.991 261.121 255.672 270.013C268.725 257.389 302.417 232.057 332.756 231.728V237.08C319.026 238.862 285.484 249.578 261.086 278.181C267.225 271.021 291.685 256.422 341 254.781L338.938 263.426C328.77 262.466 302.994 264.991 281.229 282.775C291.26 280.168 317.257 275.118 341 275.777V282.775C324.786 281.677 287.907 283.598 270.1 300.065C247.84 320.648 247.427 321.883 240.42 330.117L238.771 336.704V547.965C247.838 550.299 253.48 550.835 254.5 549C264.667 553.834 315.101 545.6 435.5 474C485.5 449 622 414 768 474C792.333 486.834 847.5 505.499 873.5 477.499C914.167 450.166 1000.8 395.799 1022 396.999C1029.83 392 1065.3 391.5 1144.5 429.499C1164 438.833 1218.5 455 1280.5 445V824.5L0 822.5V451.5C62.4555 479.567 173.151 527.371 225.58 544.104V336.704C221.733 329.431 210.493 312.004 196.312 300.477C182.132 288.95 142.863 281.951 125 279.893L126.236 276.188C137.091 274.953 165.892 276.517 194.252 292.655C188.206 286.342 166.386 270.342 127.474 256.839L129.534 252.311C139.977 256.428 161.11 264.743 162.1 265.073C163.084 265.399 142.999 252.31 132.832 245.724L138.19 238.314L165.396 254.781L139.428 226.788L145.61 221.024C163.64 232.164 198.91 255.582 203.637 264.819C198.159 248.875 186.348 217.145 179 206.616C178.45 204.146 178.176 199.123 181.474 198.793C191.092 212.241 211.152 242.02 214.45 253.546C213.901 236.531 211.318 198.3 205.382 181.503Z" fill="#72A84A"/>
</g>
<g filter="url(#filter10_d_482_84)">
<path d="M110.587 100.965C110.253 99.1304 110.787 95.7613 115.591 96.9622C120.762 107.971 132.404 139.795 137.608 179.026L139.109 185.031C150.118 158.343 174.037 104.168 181.643 100.965L193.651 106.97L157.624 190.035C171.635 164.848 200.257 114.676 202.659 115.477C205.061 116.278 207.662 118.479 208.663 119.48C196.987 144.666 173.236 197.74 171.635 208.549C187.481 193.204 228.379 162.413 265.208 162.013V168.518C248.541 170.685 207.825 183.71 178.207 218.478C185.659 209.775 215.351 192.03 275.216 190.035L272.714 200.543C260.371 199.376 229.08 202.445 202.659 224.062C214.836 220.893 246.393 214.754 275.216 215.555V224.062C255.534 222.727 210.765 225.062 189.148 245.077C162.127 270.097 161.627 271.599 153.12 281.607L151.118 289.613V545.493C168.623 551.857 196.542 564.444 234.997 586.964C229.32 574.565 221.265 558.069 213.795 553.66C222.554 554.901 242.815 560.216 253.787 571.55C253.672 563.733 250.05 543.216 236.489 523.686C251.105 530.54 277.28 547.889 281.045 568.515C281.467 548.657 283.053 519.222 287.22 507.413C298.419 514.857 319.41 540.372 313.776 582.88C322.681 571.097 347.833 548.55 377.198 552.626C360.766 569.492 329.042 604.243 333.594 608.319C341.304 605.981 359.615 601.623 371.182 602.896C362.979 612.739 342.565 631.926 321.314 637.221C337.693 645.998 344.354 648.386 349.273 649.162C358.781 650.664 362.784 652.166 375.294 650.664C387.803 649.163 396.31 636.653 421.329 633.651C445.895 630.703 477.216 644.639 486.869 648.935L487.381 649.162C496.388 653.166 567.944 695.7 589.461 690.696C602.138 692.03 632.595 692.497 653.011 683.69C678.531 672.681 717.06 627.146 749.085 617.638C774.705 610.032 840.824 651.498 870.681 673.182C880.522 681.188 905.808 693.097 928.226 676.684C950.642 660.272 957.915 647.496 958.749 643.159C959.589 641.073 960.964 638.474 962.934 635.499C953.696 635.236 943.417 635.493 939.116 638.282C942.421 633.051 951.776 621.765 962.753 618.467C957.256 615.94 941.907 611.445 924.48 613.683C933.339 606.546 952.752 595.454 968.218 599.893C954.454 593.012 934.318 582.193 927.224 575.578C935.544 570.839 959.222 565.806 987.368 583.583C981.61 573.924 972.848 550.213 983.87 532.648C991.087 548.849 1006.55 580.856 1010.67 579.28C1011.18 573.534 1013.23 560.285 1017.33 553.255C1020.94 559.96 1026.46 573.4 1027.62 586.337C1030.89 584.893 1034.28 583.479 1037.81 582.111C1065.54 571.364 1091.05 562.927 1113.08 556.36V315.921C1108.51 307.297 1095.18 286.633 1078.36 272.965C1061.54 259.298 1014.96 251 993.776 248.559L995.243 244.165C1008.12 242.701 1042.28 244.556 1075.92 263.691C1068.75 256.206 1042.86 237.234 996.71 221.223L999.154 215.854C1011.54 220.735 1036.61 230.595 1037.78 230.986C1038.95 231.376 1015.13 215.853 1003.07 208.043L1009.42 199.257L1041.69 218.783L1010.89 185.59L1018.22 178.756C1039.61 191.966 1081.44 219.732 1087.05 230.685C1080.55 211.779 1066.54 174.156 1057.83 161.671C1057.17 158.742 1056.85 152.788 1060.76 152.397C1072.17 168.342 1095.96 203.651 1099.87 217.319C1099.22 197.143 1096.16 151.811 1089.12 131.895C1088.79 130.105 1089.31 126.819 1094.01 127.99C1099.06 138.728 1110.44 169.774 1115.52 208.043L1116.99 213.902C1127.74 187.868 1151.11 135.02 1158.55 131.895L1170.28 137.753L1135.08 218.783C1148.77 194.215 1176.73 145.275 1179.08 146.051C1181.43 146.832 1183.97 148.98 1184.95 149.956C1173.54 174.526 1150.33 226.3 1148.77 236.844C1164.25 221.875 1204.21 191.838 1240.2 191.448V197.793C1223.91 199.907 1184.13 212.614 1155.19 246.53C1162.47 238.04 1191.48 220.729 1249.98 218.783L1247.53 229.034C1235.47 227.895 1204.9 230.889 1179.08 251.976C1190.98 248.884 1221.81 242.897 1249.98 243.678V251.976C1230.75 250.674 1187 252.953 1165.88 272.478C1139.48 296.884 1138.99 298.349 1130.68 308.112L1128.72 315.921V551.834C1150.6 545.703 1168.03 541.633 1179.42 539.076C1199.04 534.673 1254.65 537.242 1280 539.076V805.285L-0.5 806.285V540.077C31.6918 536.408 103.281 531.271 132.104 540.077C132.937 540.183 133.938 540.359 135.106 540.611V289.613C130.436 280.772 116.792 259.589 99.5781 245.578C82.3647 231.568 34.6944 223.061 13.0107 220.559L14.5117 216.055C27.6886 214.554 62.6494 216.455 97.0762 236.071C89.7369 228.398 63.2493 208.949 16.0127 192.536L18.5146 187.033C31.1911 192.036 56.8445 202.144 58.0459 202.544C59.2468 202.945 34.8616 187.032 22.5186 179.026L29.0234 170.019L62.0488 190.035L30.5244 156.008L38.0303 149.002C59.9164 162.543 102.73 191.007 108.468 202.236C101.819 182.855 87.4816 144.287 78.5615 131.489C77.8944 128.486 77.5615 122.382 81.5645 121.982C93.2403 138.328 117.593 174.523 121.596 188.534C120.929 167.851 117.793 121.381 110.587 100.965Z" fill="#91D064"/>
</g>
<g filter="url(#filter11_d_482_84)">
<path d="M685.456 324.617L686.098 324.793C689.471 325.784 695.31 328.519 703.182 333.723C711.481 339.21 722.067 347.459 734.448 359.349C738.373 351.702 742.895 343.454 747.096 336.926C749.25 333.578 751.327 330.669 753.202 328.522C754.139 327.45 755.035 326.557 755.872 325.894C756.703 325.235 757.512 324.774 758.274 324.613L758.425 324.587C759.185 324.478 760.088 324.716 761.06 325.156C762.113 325.634 763.329 326.388 764.671 327.36C767.357 329.307 770.607 332.178 774.165 335.619C781.172 342.397 789.418 351.438 796.977 360.128C804.287 352.489 812.734 344.05 820.51 337.479C824.464 334.138 828.256 331.27 831.645 329.234C835.014 327.21 838.057 325.964 840.494 325.964C841.732 325.964 842.979 326.522 844.206 327.458C845.436 328.397 846.688 329.746 847.942 331.405C850.452 334.724 853.032 339.353 855.54 344.624C860.454 354.953 865.13 367.833 868.499 378.381C875.589 373.087 882.688 368.065 888.521 364.468C891.512 362.623 894.184 361.144 896.356 360.196C897.442 359.722 898.418 359.375 899.255 359.183C900.08 358.993 900.828 358.941 901.428 359.117L902.621 359.478C903.758 359.841 904.733 360.246 905.62 360.99C906.804 361.982 907.789 363.534 908.918 366.24C911.146 371.581 914.045 381.719 920.034 401.818C926.203 397.09 932.621 392.355 938.133 389.055C940.973 387.354 943.594 386.022 945.83 385.271C948.038 384.529 949.994 384.31 951.415 385.021L951.767 385.208C953.513 386.194 955.12 387.944 956.624 390.364C958.232 392.952 959.748 396.347 961.206 400.497C964.071 408.653 966.731 419.797 969.399 433.635C973.94 430.573 978.297 427.811 981.843 425.876C983.696 424.865 985.341 424.073 986.684 423.582C987.355 423.337 987.963 423.161 988.492 423.075C989.013 422.99 989.504 422.983 989.913 423.119L990.77 423.387C991.621 423.647 992.451 423.922 993.208 424.535C994.236 425.368 995.111 426.783 996.027 429.474C997.84 434.794 999.916 445.432 1003.43 467.479C1006.31 465.909 1009.2 464.464 1011.69 463.461C1013.03 462.924 1014.26 462.507 1015.31 462.267C1016.35 462.03 1017.3 461.948 1018.01 462.145L1018.14 462.186C1018.78 462.413 1019.32 463.015 1019.79 463.756C1020.3 464.57 1020.79 465.663 1021.26 466.95C1022.21 469.528 1023.09 472.967 1023.9 476.718C1025.5 484.223 1026.77 493.045 1027.45 498.879L1027.48 499.114L1027.32 499.284L1015.62 511.422L1025.1 514.583V504.384L1025.11 504.272C1025.11 504.242 1025.12 504.218 1025.13 504.204C1025.14 504.17 1025.15 504.142 1025.16 504.122C1025.18 504.083 1025.21 504.046 1025.23 504.016C1025.27 503.953 1025.32 503.878 1025.39 503.797C1025.52 503.633 1025.7 503.412 1025.93 503.146C1026.39 502.613 1027.06 501.881 1027.87 501.02C1029.49 499.297 1031.71 497.048 1034.1 494.826C1036.49 492.607 1039.06 490.405 1041.39 488.783C1042.55 487.973 1043.66 487.299 1044.67 486.84C1045.66 486.387 1046.6 486.117 1047.41 486.185L1047.67 486.219C1048.26 486.33 1048.85 486.649 1049.43 487.088C1050.09 487.594 1050.76 488.292 1051.44 489.122C1052.8 490.783 1054.21 493.028 1055.57 495.484C1058.29 500.4 1060.84 506.231 1062.36 510.102L1062.39 510.189V510.284C1062.39 510.845 1062.13 511.944 1061.44 513.545C1060.81 515.011 1059.81 516.933 1058.28 519.315H1064.57V512.906L1064.61 512.812C1065.67 510.304 1067.45 506.495 1069.33 503.216C1070.27 501.578 1071.24 500.058 1072.17 498.896C1072.63 498.315 1073.1 497.812 1073.55 497.428C1073.99 497.048 1074.45 496.754 1074.92 496.637C1075.44 496.508 1076.01 496.632 1076.57 496.865C1077.14 497.103 1077.77 497.483 1078.42 497.957C1079.73 498.907 1081.22 500.286 1082.73 501.833C1085.75 504.931 1088.9 508.76 1090.87 511.342L1090.97 511.477V520.206C1097.75 515.356 1107.76 506.93 1116.7 496.713C1126.01 486.082 1134.1 473.571 1136.25 461.18L1136.26 461.143L1136.27 461.107C1136.4 460.738 1136.58 460.324 1136.81 459.961C1137.04 459.61 1137.35 459.247 1137.76 459.07C1138.23 458.872 1138.73 458.941 1139.19 459.302C1139.61 459.636 1140 460.218 1140.38 461.062L1140.56 461.479C1141.45 463.641 1142.27 467.017 1140.92 473.229C1139.71 478.797 1136.76 486.649 1130.54 497.974C1138.2 487.503 1149.1 470.871 1153.51 457.94C1153.63 457.437 1153.8 456.885 1154.02 456.42C1154.13 456.182 1154.26 455.952 1154.42 455.761C1154.57 455.573 1154.77 455.389 1155.03 455.294C1155.3 455.191 1155.6 455.21 1155.87 455.354C1156.13 455.489 1156.34 455.719 1156.53 456.002C1156.91 456.567 1157.28 457.492 1157.65 458.867L1157.73 459.216C1158.12 461.009 1158.05 463.543 1157.53 466.598C1156.97 469.87 1155.88 473.788 1154.23 478.124C1151.05 486.452 1145.77 496.346 1138.1 506.198C1143.16 504.679 1150.57 501.728 1157.94 497.306C1166.07 492.427 1174.12 485.786 1178.96 477.356L1179 477.285L1179.06 477.231L1179.35 476.989C1179.64 476.748 1179.98 476.513 1180.33 476.326C1180.77 476.084 1181.3 475.884 1181.81 475.927C1182.07 475.949 1182.33 476.039 1182.56 476.227C1182.79 476.412 1182.94 476.668 1183.04 476.97C1183.24 477.557 1183.25 478.389 1183.06 479.503C1182.86 480.693 1182.05 482.407 1180.92 484.348C1179.77 486.31 1178.27 488.57 1176.64 490.875C1173.66 495.083 1170.24 499.462 1167.76 502.501C1172.73 502.192 1182.49 498.768 1188.47 486.464L1188.48 486.44L1188.5 486.418L1188.8 485.942C1189.12 485.46 1189.49 484.963 1189.87 484.521C1190.36 483.945 1190.91 483.407 1191.45 483.146C1191.72 483.014 1192.05 482.926 1192.38 483.005C1192.74 483.088 1193 483.333 1193.17 483.655C1193.34 483.966 1193.44 484.374 1193.49 484.863C1193.53 485.235 1193.54 485.672 1193.53 486.181L1193.5 486.714C1193.39 488.473 1193.47 490.829 1192.82 493.497C1192.15 496.192 1190.73 499.22 1187.64 502.46C1181.47 508.917 1168.66 516.208 1141.87 523.476C1088.3 538.008 1042.45 544.363 891.108 549.354C880.554 563.344 866.554 599.578 893.326 634.864L893.969 635.701L893.982 635.718L893.993 635.736C896.001 638.827 899.658 647.616 898.627 658.531C900.232 660.318 902.509 663.286 904.323 666.622C906.127 669.939 907.519 673.699 907.259 677.044L907.228 677.366C906.913 680.196 906.43 685.325 904.567 690.909C906.671 690.704 908.652 690.509 910.5 690.324C911.927 690.35 913.665 690.399 915.639 690.471C915.494 690.216 915.355 689.967 915.223 689.726C917.031 689.85 919.022 690.201 921.091 690.704C927.139 691.004 934.359 691.488 941.403 692.219C937.146 681.559 924.756 661.337 917.34 649.941C939.638 650.807 955.329 671.728 960.388 682.081C961.773 648.365 980.668 631.468 989.942 627.233C991.486 636.956 988.81 659.987 986.525 675.435C992.014 659.965 1013.68 650.107 1025.41 646.798C1012.81 660.075 1007.44 675.48 1006.33 681.522C1015.95 674.242 1031.66 672.899 1038.31 673.138C1034.74 674.536 1030.48 679.102 1026.4 684.417C1052.25 676.417 1079.54 662.742 1101 640.324C1101.81 639.725 1102.77 639.11 1103.86 638.489L1102.62 638.304C1101.2 638.928 1080.92 612.254 1070.26 609.968C1076.79 608.66 1092.51 607.454 1103.17 613.091C1101.11 607.306 1093.33 592.967 1078.75 581.894C1090.86 583.269 1113.83 589.508 1121.74 603.891C1117 589.013 1110.65 566.714 1110.6 556.87C1120.44 559.555 1141.81 573.187 1148.61 606.239C1151.93 595.207 1164.05 572.031 1185.92 567.584C1178.54 584.314 1164.86 618.242 1169.13 620.113C1174 616.411 1185.89 608.506 1194.42 606.507C1192.32 612.461 1187.7 622.441 1181.11 631.338C1193.12 633.097 1206.42 635.975 1221 640.324L1280 667.324V1643H0V635.324C16.6667 632.158 62.7001 627.124 113.5 632.324C125.5 634.157 153.7 640.924 170.5 653.324C186.167 663.824 219.2 684.824 226 684.824C227.82 684.824 235.075 685.74 245.869 686.985C234.132 674.683 215.231 654.847 203.415 652.495C214.151 650.364 239.984 648.289 257.431 657.041C254.1 647.959 241.485 625.48 217.665 608.216C237.535 610.245 275.193 619.807 288.021 642.354C280.397 618.992 270.218 583.968 270.257 568.476C286.378 572.59 321.32 593.806 332.117 645.75C337.7 628.349 357.855 591.738 393.814 584.495C381.52 610.908 358.676 664.458 365.659 667.356C371.943 662.764 385.271 654.09 397.489 648.966C392.685 640.642 387.303 632.031 383.34 625.941C405.638 626.807 421.329 647.728 426.388 658.081C427.773 624.365 446.668 607.468 455.942 603.233C457.486 612.956 454.811 635.987 452.526 651.435C458.015 635.965 479.684 626.107 491.413 622.798C478.807 636.075 473.439 651.48 472.331 657.522C481.946 650.242 497.658 648.899 504.312 649.138C497.714 651.72 488.768 665.12 482.898 674.082C501.367 675.622 517.477 680.459 533 684.824C546.793 688.704 560.215 692.396 574.547 695.703C576.342 693.639 578.229 691.629 580.005 689.845C579.633 687.326 579.2 683.494 579.071 679.859C579.005 677.981 579.018 676.145 579.165 674.565C579.31 673.003 579.591 671.627 580.098 670.714L580.229 670.493C580.57 669.954 581.136 669.261 581.846 668.465C582.666 667.545 583.71 666.453 584.892 665.246C587.268 662.819 590.179 659.949 593.049 656.992C595.911 654.044 598.689 651.052 600.749 648.436C601.779 647.127 602.621 645.923 603.202 644.875C603.792 643.812 604.08 642.968 604.08 642.362C604.08 641.43 603.417 640.468 602.102 639.505C600.804 638.555 598.982 637.687 596.92 636.92C592.825 635.397 587.9 634.318 584.593 633.788C566.486 635.141 522.513 631.12 490.836 604.164L490.478 603.859L490.531 603.786C490.468 603.76 490.391 603.73 490.296 603.699C489.698 603.502 488.622 603.276 486.866 603.054C483.803 602.666 478.747 602.299 470.728 602.092L467.105 602.014C454.291 601.785 440.938 596.753 430.804 591.114C425.733 588.293 421.45 585.309 418.427 582.679C416.917 581.365 415.71 580.129 414.876 579.037C414.061 577.969 413.534 576.954 413.534 576.097C413.534 574.511 414.726 572.511 417.07 570.445C419.442 568.355 423.083 566.116 428.195 564.059C438.366 559.966 454.419 556.572 478.066 556.535C478.617 554.339 479.558 551.276 480.714 548.778C481.324 547.46 482.009 546.263 482.75 545.437C483.475 544.628 484.376 544.042 485.384 544.294L485.584 544.352C486.577 544.672 487.422 545.487 488.125 546.493C488.882 547.578 489.523 548.955 490.042 550.396C490.722 552.287 491.206 554.332 491.458 556.047C492.087 554.39 492.92 552.448 493.894 550.615C494.62 549.247 495.431 547.929 496.297 546.831C497.158 545.74 498.1 544.833 499.103 544.332L499.327 544.234C499.851 544.041 500.374 544.083 500.863 544.323C501.395 544.584 501.862 545.066 502.273 545.655C503.099 546.837 503.827 548.629 504.454 550.645C505.502 554.01 506.306 558.13 506.81 561.432C507.803 559 509.279 555.848 511.1 552.773C513.4 548.888 516.284 545.06 519.47 542.998C520.331 542.44 521.195 542.255 522.035 542.446C522.859 542.634 523.586 543.168 524.225 543.9C525.493 545.356 526.543 547.749 527.409 550.507C529.097 555.882 530.154 562.894 530.631 567.881H533.162C532.289 564.118 531.59 554.983 534.684 543.289L534.807 542.823L535.277 542.93C536.587 543.228 538.188 543.699 539.951 544.354C539.301 541.83 538.82 539.215 538.722 536.829C538.611 534.159 538.974 531.687 540.204 529.965L540.371 529.741C542.137 527.488 545.187 526.81 548.373 526.867C551.355 526.921 554.584 527.62 557.312 528.42C555.98 523.885 554.578 518.597 553.687 514.011C553.212 511.568 552.878 509.31 552.779 507.464C552.73 506.541 552.738 505.709 552.82 505.002C552.902 504.303 553.06 503.684 553.339 503.219L553.42 503.095C553.853 502.489 554.664 502.11 555.611 501.866C556.65 501.599 557.979 501.464 559.503 501.443C562.361 501.404 565.976 501.767 569.795 502.482C568.031 495.647 566.071 487.237 564.866 480.068C564.241 476.351 563.816 472.951 563.729 470.272C563.686 468.934 563.727 467.759 563.875 466.807C564.02 465.872 564.28 465.072 564.738 464.562L564.832 464.464C565.327 463.982 566.154 463.629 567.148 463.36C568.235 463.067 569.617 462.851 571.219 462.71C574.288 462.441 578.214 462.449 582.524 462.756C581.952 455.229 581.445 446.179 581.409 438.428C581.391 434.454 581.496 430.811 581.78 427.886C581.923 426.423 582.111 425.13 582.354 424.061C582.594 423.001 582.897 422.119 583.29 421.508L583.426 421.316C584.147 420.394 585.469 420.02 587.021 419.952C588.709 419.879 590.842 420.16 593.233 420.683C597.837 421.689 603.511 423.621 609.071 425.817C609.14 416.658 609.507 405.02 610.446 395.147C610.929 390.081 611.563 385.464 612.388 381.881C612.8 380.09 613.263 378.542 613.785 377.319C614.301 376.112 614.902 375.157 615.626 374.626L615.77 374.526C616.504 374.049 617.503 373.835 618.651 373.798C619.888 373.758 621.363 373.922 623.009 374.244C626.301 374.889 630.35 376.185 634.682 377.86C643.126 381.127 652.711 385.866 659.998 390.14C662.893 379.007 666.765 365.596 671.057 353.556C675.422 341.308 680.247 330.399 684.952 324.781L685.152 324.542L685.456 324.617ZM778.747 618.078C774.34 621.918 765.149 627.386 750.782 632.328C735.51 637.582 714.36 642.25 686.824 643.737C688.23 652.706 687.341 674.976 673.113 697.453L671.85 707.062C694.897 706.678 724.937 705.116 756.285 703.047L778.747 686.139V618.078ZM648.489 643.761C648.429 643.749 648.274 643.748 647.994 643.853C647.722 643.954 647.368 644.141 646.93 644.444C646.052 645.052 644.881 646.097 643.402 647.756C640.447 651.072 636.308 656.789 630.873 666.214L630.763 666.404L630.548 666.452C625.15 667.652 617.575 670.53 612.354 675.231C609.75 677.577 607.753 680.358 606.883 683.591C606.022 686.789 606.252 690.477 608.162 694.698C608.4 694.909 608.556 695.202 608.562 695.564C608.569 695.954 608.402 696.356 608.124 696.757C607.569 697.558 606.431 698.556 604.509 699.78C603.789 700.239 602.953 700.732 601.986 701.263C612.827 703.146 624.452 704.792 637.267 706.141L654.009 692.036C654.905 684.033 655.68 672.105 655.12 662.066C654.837 657.001 654.216 652.452 653.117 649.139C652.568 647.482 651.908 646.165 651.138 645.25C650.421 644.399 649.624 643.91 648.728 643.788L648.547 643.769L648.518 643.767L648.489 643.761ZM831.05 627.642C831.597 638.067 827.822 658.505 809.229 681.578C809.086 686.028 808.236 692.62 806.209 699.442C830.421 697.563 853.61 695.591 873.105 693.841C873.183 693.789 873.261 693.737 873.338 693.687L873.346 693.682L873.355 693.676C875.888 692.155 878.769 688.885 879.137 684.024C879.492 679.319 877.499 673.014 870.331 665.25L869.621 664.494C859.907 654.324 851.916 649.714 845.302 644.865C839.462 640.584 834.753 636.146 831.05 627.642ZM389.838 678.565C386.619 683.228 383.048 687.838 379.156 692.123C386.326 691.394 393.117 690.386 399.349 689.042C395.812 685.716 392.603 682.086 389.838 678.565ZM402.2 657.416C400.354 661.178 398.178 665.246 395.696 669.419C400.851 671.354 405.605 673.612 408.372 675.08C410.187 673.902 407.064 666.52 402.2 657.416ZM943.207 481.31L944.442 483.286L944.668 479.863C944.189 480.338 943.702 480.821 943.207 481.31Z" fill="#F0A55E"/>
</g>
<g filter="url(#filter12_d_482_84)">
<path d="M813.57 191.1C800.039 145.322 751.552 117.959 729 110H755.402C780.815 118.563 804.769 135.25 813.57 142.523C822.151 157.343 841.347 175.32 849.873 182.455L867.2 165.165C865.549 162.969 862.827 158.084 865.137 156.108C867.447 154.132 872.975 156.931 875.45 158.578C877.926 157.343 912.579 129.349 925.367 123.997C935.598 119.716 940.906 118.92 942.281 119.057C955.812 119.386 952.32 120.841 948.882 121.527C921.489 127.126 897.315 154.05 888.652 166.812C899.542 176.692 930.043 195.08 943.931 203.039C946.242 207.65 943.794 207.43 942.281 206.744L923.305 197.276L939.393 207.568C941.044 210.861 938.706 210.587 937.331 210.038C928.75 204.439 893.327 194.257 876.688 189.865C874.625 190.689 863.487 197.687 856.061 200.157C850.121 202.133 834.059 204.549 826.771 205.509C824.131 207.815 812.47 215.527 806.969 219.095C805.182 219.506 800.946 220.247 798.306 219.918C795.666 219.589 792.531 217.311 791.293 216.213L793.356 212.096C799.681 212.645 812.58 212.261 813.57 206.333C814.56 200.404 813.982 193.708 813.57 191.1Z" fill="white"/>
</g>
<g filter="url(#filter13_d_482_84)">
<path d="M481.026 156.565C483.676 160.202 489.729 167.643 492.741 168.314C496.507 169.153 502.783 168.734 503.201 169.153C503.62 169.573 504.875 169.153 512.824 175.867H522.029C523.005 175.867 526.297 177.126 531.652 182.161L534.162 183L535.836 181.322L529.56 175.867L536.673 180.482C538.625 180.902 541.944 181.154 539.601 178.804C536.673 175.867 530.397 171.251 519.519 168.314C520.216 162.58 522.531 149.6 526.213 143.558C530.815 136.005 549.224 99.0804 585.625 70.1282C587.298 68.7295 588.804 66.6036 581.441 69.289C574.077 71.9744 560.242 82.4365 554.245 87.3318C541.275 97.4022 513.828 121.235 507.804 136.005C506.409 130.69 508.306 113.934 527.05 89.4298C529.56 87.0521 531.15 83.975 517.427 90.6886C512.545 93.2062 500.524 101.85 491.486 116.284C489.534 119.361 486.382 128.62 489.394 141.04H469.73C465.128 139.921 454.584 137.6 449.229 137.264C443.873 136.928 457.318 142.998 464.709 146.076C459.549 145.516 449.229 144.733 449.229 146.076C449.229 147.754 475.587 154.887 481.026 156.565Z" fill="white"/>
</g>
</g>
<defs>
<filter id="filter0_d_482_84" x="909" y="108" width="286.806" height="101.528" filterUnits="userSpaceOnUse" color-interpolation-filters="sRGB">
<feFlood flood-opacity="0" result="BackgroundImageFix"/>
<feColorMatrix in="SourceAlpha" type="matrix" values="0 0 0 0 0 0 0 0 0 0 0 0 0 0 0 0 0 0 127 0" result="hardAlpha"/>
<feOffset dy="10"/>
<feGaussianBlur stdDeviation="10"/>
<feComposite in2="hardAlpha" operator="out"/>
<feColorMatrix type="matrix" values="0 0 0 0 0 0 0 0 0 0 0 0 0 0 0 0 0 0 0.4 0"/>
<feBlend mode="normal" in2="BackgroundImageFix" result="effect1_dropShadow_482_84"/>
<feBlend mode="normal" in="SourceGraphic" in2="effect1_dropShadow_482_84" result="shape"/>
</filter>
<filter id="filter1_d_482_84" x="76.9492" y="64.9165" width="216.551" height="85.0835" filterUnits="userSpaceOnUse" color-interpolation-filters="sRGB">
<feFlood flood-opacity="0" result="BackgroundImageFix"/>
<feColorMatrix in="SourceAlpha" type="matrix" values="0 0 0 0 0 0 0 0 0 0 0 0 0 0 0 0 0 0 127 0" result="hardAlpha"/>
<feOffset dy="10"/>
<feGaussianBlur stdDeviation="10"/>
<feComposite in2="hardAlpha" operator="out"/>
<feColorMatrix type="matrix" values="0 0 0 0 0 0 0 0 0 0 0 0 0 0 0 0 0 0 0.4 0"/>
<feBlend mode="normal" in2="BackgroundImageFix" result="effect1_dropShadow_482_84"/>
<feBlend mode="normal" in="SourceGraphic" in2="effect1_dropShadow_482_84" result="shape"/>
</filter>
<filter id="filter2_d_482_84" x="116.037" y="57.4077" width="331.536" height="143.092" filterUnits="userSpaceOnUse" color-interpolation-filters="sRGB">
<feFlood flood-opacity="0" result="BackgroundImageFix"/>
<feColorMatrix in="SourceAlpha" type="matrix" values="0 0 0 0 0 0 0 0 0 0 0 0 0 0 0 0 0 0 127 0" result="hardAlpha"/>
<feOffset dy="10"/>
<feGaussianBlur stdDeviation="10"/>
<feComposite in2="hardAlpha" operator="out"/>
<feColorMatrix type="matrix" values="0 0 0 0 0 0 0 0 0 0 0 0 0 0 0 0 0 0 0.4 0"/>
<feBlend mode="normal" in2="BackgroundImageFix" result="effect1_dropShadow_482_84"/>
<feBlend mode="normal" in="SourceGraphic" in2="effect1_dropShadow_482_84" result="shape"/>
</filter>
<filter id="filter3_d_482_84" x="-2.28076" y="-187.141" width="1289.56" height="390.562" filterUnits="userSpaceOnUse" color-interpolation-filters="sRGB">
<feFlood flood-opacity="0" result="BackgroundImageFix"/>
<feColorMatrix in="SourceAlpha" type="matrix" values="0 0 0 0 0 0 0 0 0 0 0 0 0 0 0 0 0 0 127 0" result="hardAlpha"/>
<feOffset dy="3.14062"/>
<feGaussianBlur stdDeviation="3.14062"/>
<feComposite in2="hardAlpha" operator="out"/>
<feColorMatrix type="matrix" values="0 0 0 0 0 0 0 0 0 0 0 0 0 0 0 0 0 0 0.4 0"/>
<feBlend mode="normal" in2="BackgroundImageFix" result="effect1_dropShadow_482_84"/>
<feBlend mode="normal" in="SourceGraphic" in2="effect1_dropShadow_482_84" result="shape"/>
</filter>
<filter id="filter4_d_482_84" x="-61" y="107" width="1399" height="850" filterUnits="userSpaceOnUse" color-interpolation-filters="sRGB">
<feFlood flood-opacity="0" result="BackgroundImageFix"/>
<feColorMatrix in="SourceAlpha" type="matrix" values="0 0 0 0 0 0 0 0 0 0 0 0 0 0 0 0 0 0 127 0" result="hardAlpha"/>
<feOffset dy="-10"/>
<feGaussianBlur stdDeviation="30"/>
<feComposite in2="hardAlpha" operator="out"/>
<feColorMatrix type="matrix" values="0 0 0 0 0 0 0 0 0 0 0 0 0 0 0 0 0 0 0.4 0"/>
<feBlend mode="normal" in2="BackgroundImageFix" result="effect1_dropShadow_482_84"/>
<feBlend mode="normal" in="SourceGraphic" in2="effect1_dropShadow_482_84" result="shape"/>
</filter>
<filter id="filter5_d_482_84" x="-60.0469" y="244.945" width="1400.09" height="724.094" filterUnits="userSpaceOnUse" color-interpolation-filters="sRGB">
<feFlood flood-opacity="0" result="BackgroundImageFix"/>
<feColorMatrix in="SourceAlpha" type="matrix" values="0 0 0 0 0 0 0 0 0 0 0 0 0 0 0 0 0 0 127 0" result="hardAlpha"/>
<feOffset dy="-10.0078"/>
<feGaussianBlur stdDeviation="30.0235"/>
<feComposite in2="hardAlpha" operator="out"/>
<feColorMatrix type="matrix" values="0 0 0 0 0 0 0 0 0 0 0 0 0 0 0 0 0 0 0.4 0"/>
<feBlend mode="normal" in2="BackgroundImageFix" result="effect1_dropShadow_482_84"/>
<feBlend mode="normal" in="SourceGraphic" in2="effect1_dropShadow_482_84" result="shape"/>
</filter>
<filter id="filter6_d_482_84" x="-63.0702" y="363.664" width="1403.14" height="555.65" filterUnits="userSpaceOnUse" color-interpolation-filters="sRGB">
<feFlood flood-opacity="0" result="BackgroundImageFix"/>
<feColorMatrix in="SourceAlpha" type="matrix" values="0 0 0 0 0 0 0 0 0 0 0 0 0 0 0 0 0 0 127 0" result="hardAlpha"/>
<feOffset dy="-10.0117"/>
<feGaussianBlur stdDeviation="30.0351"/>
<feComposite in2="hardAlpha" operator="out"/>
<feColorMatrix type="matrix" values="0 0 0 0 0 0 0 0 0 0 0 0 0 0 0 0 0 0 0.4 0"/>
<feBlend mode="normal" in2="BackgroundImageFix" result="effect1_dropShadow_482_84"/>
<feBlend mode="normal" in="SourceGraphic" in2="effect1_dropShadow_482_84" result="shape"/>
</filter>
<filter id="filter7_d_482_84" x="145" y="214.068" width="423.488" height="345.932" filterUnits="userSpaceOnUse" color-interpolation-filters="sRGB">
<feFlood flood-opacity="0" result="BackgroundImageFix"/>
<feColorMatrix in="SourceAlpha" type="matrix" values="0 0 0 0 0 0 0 0 0 0 0 0 0 0 0 0 0 0 127 0" result="hardAlpha"/>
<feOffset dy="-10"/>
<feGaussianBlur stdDeviation="30"/>
<feComposite in2="hardAlpha" operator="out"/>
<feColorMatrix type="matrix" values="0 0 0 0 0 0 0 0 0 0 0 0 0 0 0 0 0 0 0.4 0"/>
<feBlend mode="normal" in2="BackgroundImageFix" result="effect1_dropShadow_482_84"/>
<feBlend mode="normal" in="SourceGraphic" in2="effect1_dropShadow_482_84" result="shape"/>
</filter>
<filter id="filter8_d_482_84" x="-63" y="420" width="1401.5" height="555" filterUnits="userSpaceOnUse" color-interpolation-filters="sRGB">
<feFlood flood-opacity="0" result="BackgroundImageFix"/>
<feColorMatrix in="SourceAlpha" type="matrix" values="0 0 0 0 0 0 0 0 0 0 0 0 0 0 0 0 0 0 127 0" result="hardAlpha"/>
<feOffset dy="-10"/>
<feGaussianBlur stdDeviation="30"/>
<feComposite in2="hardAlpha" operator="out"/>
<feColorMatrix type="matrix" values="0 0 0 0 0 0 0 0 0 0 0 0 0 0 0 0 0 0 0.4 0"/>
<feBlend mode="normal" in2="BackgroundImageFix" result="effect1_dropShadow_482_84"/>
<feBlend mode="normal" in="SourceGraphic" in2="effect1_dropShadow_482_84" result="shape"/>
</filter>
<filter id="filter9_d_482_84" x="-60" y="108.002" width="1400.5" height="766.498" filterUnits="userSpaceOnUse" color-interpolation-filters="sRGB">
<feFlood flood-opacity="0" result="BackgroundImageFix"/>
<feColorMatrix in="SourceAlpha" type="matrix" values="0 0 0 0 0 0 0 0 0 0 0 0 0 0 0 0 0 0 127 0" result="hardAlpha"/>
<feOffset dy="-10"/>
<feGaussianBlur stdDeviation="30"/>
<feComposite in2="hardAlpha" operator="out"/>
<feColorMatrix type="matrix" values="0 0 0 0 0 0 0 0 0 0 0 0 0 0 0 0 0 0 0.4 0"/>
<feBlend mode="normal" in2="BackgroundImageFix" result="effect1_dropShadow_482_84"/>
<feBlend mode="normal" in="SourceGraphic" in2="effect1_dropShadow_482_84" result="shape"/>
</filter>
<filter id="filter10_d_482_84" x="-60.5469" y="26.6548" width="1400.59" height="829.67" filterUnits="userSpaceOnUse" color-interpolation-filters="sRGB">
<feFlood flood-opacity="0" result="BackgroundImageFix"/>
<feColorMatrix in="SourceAlpha" type="matrix" values="0 0 0 0 0 0 0 0 0 0 0 0 0 0 0 0 0 0 127 0" result="hardAlpha"/>
<feOffset dy="-10.0078"/>
<feGaussianBlur stdDeviation="30.0234"/>
<feComposite in2="hardAlpha" operator="out"/>
<feColorMatrix type="matrix" values="0 0 0 0 0 0 0 0 0 0 0 0 0 0 0 0 0 0 0.4 0"/>
<feBlend mode="normal" in2="BackgroundImageFix" result="effect1_dropShadow_482_84"/>
<feBlend mode="normal" in="SourceGraphic" in2="effect1_dropShadow_482_84" result="shape"/>
</filter>
<filter id="filter11_d_482_84" x="-60" y="254.542" width="1400" height="1438.46" filterUnits="userSpaceOnUse" color-interpolation-filters="sRGB">
<feFlood flood-opacity="0" result="BackgroundImageFix"/>
<feColorMatrix in="SourceAlpha" type="matrix" values="0 0 0 0 0 0 0 0 0 0 0 0 0 0 0 0 0 0 127 0" result="hardAlpha"/>
<feOffset dy="-10"/>
<feGaussianBlur stdDeviation="30"/>
<feComposite in2="hardAlpha" operator="out"/>
<feColorMatrix type="matrix" values="0 0 0 0 0 0 0 0 0 0 0 0 0 0 0 0 0 0 0.4 0"/>
<feBlend mode="normal" in2="BackgroundImageFix" result="effect1_dropShadow_482_84"/>
<feBlend mode="normal" in="SourceGraphic" in2="effect1_dropShadow_482_84" result="shape"/>
</filter>
<filter id="filter12_d_482_84" x="729" y="100" width="283" height="150" filterUnits="userSpaceOnUse" color-interpolation-filters="sRGB">
<feFlood flood-opacity="0" result="BackgroundImageFix"/>
<feColorMatrix in="SourceAlpha" type="matrix" values="0 0 0 0 0 0 0 0 0 0 0 0 0 0 0 0 0 0 127 0" result="hardAlpha"/>
<feOffset dx="40" dy="10"/>
<feGaussianBlur stdDeviation="10"/>
<feComposite in2="hardAlpha" operator="out"/>
<feColorMatrix type="matrix" values="0 0 0 0 0 0 0 0 0 0 0 0 0 0 0 0 0 0 0.4 0"/>
<feBlend mode="normal" in2="BackgroundImageFix" result="effect1_dropShadow_482_84"/>
<feBlend mode="normal" in="SourceGraphic" in2="effect1_dropShadow_482_84" result="shape"/>
</filter>
<filter id="filter13_d_482_84" x="448" y="58" width="179" height="155" filterUnits="userSpaceOnUse" color-interpolation-filters="sRGB">
<feFlood flood-opacity="0" result="BackgroundImageFix"/>
<feColorMatrix in="SourceAlpha" type="matrix" values="0 0 0 0 0 0 0 0 0 0 0 0 0 0 0 0 0 0 127 0" result="hardAlpha"/>
<feOffset dx="20" dy="10"/>
<feGaussianBlur stdDeviation="10"/>
<feComposite in2="hardAlpha" operator="out"/>
<feColorMatrix type="matrix" values="0 0 0 0 0 0 0 0 0 0 0 0 0 0 0 0 0 0 0.4 0"/>
<feBlend mode="normal" in2="BackgroundImageFix" result="effect1_dropShadow_482_84"/>
<feBlend mode="normal" in="SourceGraphic" in2="effect1_dropShadow_482_84" result="shape"/>
</filter>
<linearGradient id="paint0_linear_482_84" x1="640" y1="0" x2="640" y2="827" gradientUnits="userSpaceOnUse">
<stop stop-color="#2D5B50"/>
<stop offset="1" stop-color="#0D3537"/>
</linearGradient>
<clipPath id="clip0_482_84">
<rect width="1280" height="827" fill="white"/>
</clipPath>
</defs>
</svg>
