<svg width="25" height="25" viewBox="0 0 25 25" fill="none" xmlns="http://www.w3.org/2000/svg">
<g id="gg:play-button-o">
<g id="Group">
<path id="Vector" fill-rule="evenodd" clip-rule="evenodd" d="M12.356 21.7327C13.573 21.7327 14.7781 21.493 15.9025 21.0273C17.0268 20.5616 18.0485 19.8789 18.909 19.0184C19.7696 18.1578 20.4522 17.1362 20.9179 16.0119C21.3837 14.8875 21.6234 13.6824 21.6234 12.4654C21.6234 11.2484 21.3837 10.0433 20.9179 8.91895C20.4522 7.79459 19.7696 6.77297 18.909 5.91242C18.0485 5.05186 17.0268 4.36924 15.9025 3.90351C14.7781 3.43778 13.573 3.19808 12.356 3.19808C9.89818 3.19808 7.541 4.17445 5.80304 5.91242C4.06508 7.65038 3.0887 10.0076 3.0887 12.4654C3.0887 14.9233 4.06508 17.2804 5.80304 19.0184C7.541 20.7564 9.89818 21.7327 12.356 21.7327ZM12.356 23.7921C18.6115 23.7921 23.6828 18.7208 23.6828 12.4654C23.6828 6.20996 18.6115 1.13867 12.356 1.13867C6.10058 1.13867 1.0293 6.20996 1.0293 12.4654C1.0293 18.7208 6.10058 23.7921 12.356 23.7921Z" fill="white"/>
<path id="Vector_2" d="M16.4751 12.4654L10.2969 16.9241V8.00684L16.4751 12.4654Z" fill="white"/>
</g>
</g>
</svg>
